# xmcd
#
# Track frame offsets: 
#        150
#        14282
#        29935
#        52610
#        70577
#        91885
#        119177
#        139382
#        153090
#
# Disc length: 2444 seconds
#
# Revision: 0
# Processed by: cddbd v1.5.2PL0 Copyright (c) Steve Scherf et al.
# Submitted via: ExactAudioCopy v0.99pb4
#
DISCID=75098a09
DTITLE=Steve Trovato - About Time...
DYEAR=2001
DGENRE=Instrumental
TTITLE0=D.G.'s Boogie
TTITLE1=Knock, Knock, Knock
TTITLE2=Dark Eyes
TTITLE3=Small Things Remembered
TTITLE4=Squawkin'
TTITLE5=Somewhere Over The Rainbow
TTITLE6=Drowning In My Own Tears
TTITLE7=Root Beer Rag
TTITLE8=Adagio For Strings
EXTD=
EXTT0=
EXTT1=
EXTT2=
EXTT3=
EXTT4=
EXTT5=
EXTT6=
EXTT7=
EXTT8=
PLAYORDER=
